<svg xmlns="http://www.w3.org/2000/svg" viewBox="0 0 511.63 511.63"><defs><style>.cls-1{fill:#07ce8a;stroke:#07ce8a;stroke-miterlimit:10;stroke-width:10px;}</style></defs><title>code</title><g id="File"><polygon class="cls-1" points="231.24 398.02 256.8 403.38 314.17 135.03 288.61 129.67 231.24 398.02"/><path class="cls-1" d="M454.39,262.61l-95.16-95.16a7.56,7.56,0,0,0-1.45-1.14l-3.47-3.47-19.54,19.54,27.31,27.31.09-.09,57.71,57.71-57.81,57.81,0,0-27.31,27.31,19.54,19.54,3.78-3.78a7.71,7.71,0,0,0,1.2-1L454.39,272l4.57-5Z"/><path class="cls-1" d="M86,262.61l95.16-95.16a7.56,7.56,0,0,1,1.45-1.14l3.47-3.47,19.54,19.54-27.31,27.31-.09-.09-57.71,57.71,57.81,57.81,0,0,27.31,27.31-19.54,19.54-3.78-3.78a7.71,7.71,0,0,1-1.2-1L86,272l-4.57-5Z"/></g></svg>
