<svg id="Eye" xmlns="http://www.w3.org/2000/svg" viewBox="0 0 511.63 511.63"><defs><style>.cls-1{fill:#07ce8a;}.cls-2{fill:none;}</style></defs><title>eye-with-a-diagonal-line</title><path class="cls-1" d="M336.53,285.45a113.51,113.51,0,0,0,20.54-65.91A125,125,0,0,0,355,197.7L282.19,328.22A114.53,114.53,0,0,0,336.53,285.45Z"/><path class="cls-1" d="M468.34,234.88A257.9,257.9,0,0,0,430.77,187a307.88,307.88,0,0,0-47.45-39.78l-16.38,29.12q43.42,29.9,73.31,76.44-31.45,48.88-78.38,79.81a215.77,215.77,0,0,1-102,35.62L240.6,402.57a248.39,248.39,0,0,0,109.06-24.7Q401,353.18,440,308.46c12.13-14,21.73-26.49,28.49-37.59,4.28-6.26,6.13-11.5,9.42-18C475.64,246.91,471.81,240.77,468.34,234.88Z"/><path class="cls-1" d="M216,247.69l.77-1.54c-.72-.85-1.4-1.74-2.06-2.64l-.88,1.58C214.54,246,215.27,246.85,216,247.69Z"/><path class="cls-2" d="M152.86,275.32A115.74,115.74,0,0,1,156,164q-59.54,30.41-99.05,91.77,43.41,67.08,111,97.49l20.28-36.66A114.69,114.69,0,0,1,152.86,275.32Z"/><path class="cls-2" d="M152.86,275.32A115.74,115.74,0,0,1,156,164q-59.54,30.41-99.05,91.77,43.41,67.08,111,97.49l20.28-36.66A114.69,114.69,0,0,1,152.86,275.32Z"/><path class="cls-2" d="M214.73,243.52l-.88,1.58c.69.9,1.42,1.76,2.17,2.6l.77-1.54C216.08,245.3,215.39,244.42,214.73,243.52Z"/><path class="cls-2" d="M152.86,275.32A115.74,115.74,0,0,1,156,164q-59.54,30.41-99.05,91.77,43.41,67.08,111,97.49l20.28-36.66A114.69,114.69,0,0,1,152.86,275.32Z"/><path class="cls-2" d="M256.89,166.53l10.55-20.95a68.61,68.61,0,0,0-17.49-1.49c-38.39,1.65-68.15,34.62-66.47,73.65a71.09,71.09,0,0,0,22.78,49.34L216,247.69l.77-1.54c-.72-.85-1.4-1.74-2.06-2.64l40.73-72.9-4.55-4.21A47.21,47.21,0,0,1,256.89,166.53Z"/><path class="cls-1" d="M317.43,85.26l-14,25.22a254.51,254.51,0,0,0-46.8-4.42q-69.94,0-129,35.36t-98.8,96.46c-3.39,6-5.14,8.63-10.14,18a129.57,129.57,0,0,0,10.14,17.87,310.31,310.31,0,0,0,54.21,63.7,269.05,269.05,0,0,0,68.5,45c-7.63,13-11,20.16-12.15,22.28l38.69,22.82,12.74-23.14Q218.13,355.77,271.91,259l1.09-2,25.75-46.34q35.71-64.24,56.14-100.81ZM167.94,353.32q-67.59-30.42-111-97.49Q96.44,194.46,156,164a116.21,116.21,0,0,0,32.24,152.6Zm89-186.78a47.21,47.21,0,0,0-6-.14l.52.48h-.07c-26.3,0-47.62,21.67-47.62,48.41a48.7,48.7,0,0,0,10.11,29.81l.88-1.58c.66.9,1.34,1.79,2.06,2.64l-.77,1.54-9.76,19.39a71.09,71.09,0,0,1-22.78-49.34c-1.68-39,28.08-72,66.47-73.65a68.61,68.61,0,0,1,17.49,1.49Z"/></svg>
