<svg xmlns="http://www.w3.org/2000/svg" viewBox="0 0 100 100"><path d="M44.552 92.5a4.05 4.05 0 01-4.05-4.05v-28.9a4.05 4.05 0 118.1 0v28.9a4.05 4.05 0 01-4.05 4.05zM55.448 92.5a4.05 4.05 0 01-4.05-4.05v-28.9a4.05 4.05 0 118.1 0v28.9a4.05 4.05 0 01-4.05 4.05z" fill="#07ce8a"/><circle cx="50" cy="20.557" r="8.191" fill="#07ce8a"/><path d="M66.681 11.001v10.615a3.18 3.18 0 01-1.21 2.496l-11.019 9.095a2.73 2.73 0 00-.435 3.756l1.265 1.664a2.728 2.728 0 003.907.454l11.298-9.311a9.676 9.676 0 003.684-7.598v-11.17a3.501 3.501 0 00-3.501-3.501h-.488a3.5 3.5 0 00-3.501 3.5zM33.319 11.001v10.615a3.18 3.18 0 001.21 2.496l11.019 9.095a2.73 2.73 0 01.435 3.756l-1.265 1.664a2.728 2.728 0 01-3.907.454L29.513 29.77a9.676 9.676 0 01-3.684-7.598v-11.17a3.501 3.501 0 013.501-3.501h.488a3.5 3.5 0 013.501 3.5z" fill="#07ce8a"/><path d="M56.5 60.736h-13a2.997 2.997 0 01-2.997-2.997V33.875a2.997 2.997 0 012.997-2.997h13a2.997 2.997 0 012.997 2.997v23.863a2.996 2.996 0 01-2.997 2.998z" fill="#07ce8a"/></svg>
