<svg xmlns="http://www.w3.org/2000/svg" viewBox="0 0 114.03 98.44"><defs><style>.cls-1{fill:#fff;}.cls-2{fill:#b96341;}.cls-3{fill:#85422b;}.cls-4{fill:#1d1d1b;}</style></defs><title>Asset 2</title><g id="Layer_2" data-name="Layer 2"><g id="Capa_1" data-name="Capa 1"><path class="cls-1" d="M7.11,88.3,1.56,91.65,7.11,95,6.22,96.3,0,92.43V90.86L6.27,87Z"/><path class="cls-1" d="M16.69,84.73v12H15.08l-.13-1a2.81,2.81,0,0,1-2.39,1.26c-2.21,0-3.23-1.79-3.23-4.48s1.28-4.51,3.39-4.51a2.74,2.74,0,0,1,2.15.94V84.52Zm-5.43,7.72c0,2.18.65,3.11,1.78,3.11a2.22,2.22,0,0,0,1.83-1.23v-4a2,2,0,0,0-1.68-1C12,89.33,11.26,90.31,11.26,92.45Z"/><path class="cls-1" d="M23.41,95.52a3.86,3.86,0,0,0,2.25-.74l.78,1.1a4.94,4.94,0,0,1-3.11,1.05c-2.67,0-4.13-1.81-4.13-4.48s1.47-4.51,3.9-4.51c2.27,0,3.7,1.62,3.7,4.28a6.27,6.27,0,0,1-.05.81H21.08C21.19,94.78,22.18,95.52,23.41,95.52ZM21.06,91.8h4c0-1.62-.7-2.51-1.91-2.51S21.17,90.08,21.06,91.8Z"/><path class="cls-1" d="M33.76,96.72H31.65l-3-8.55h2l2.15,7,2.19-7h1.86Z"/><path class="cls-1" d="M44,94.41c0-.7-.28-1-2-1.48s-2.82-1-2.82-2.53,1.31-2.46,3.41-2.46a5.31,5.31,0,0,1,3.26,1L45,90.08a4.2,4.2,0,0,0-2.43-.76c-1.16,0-1.62.37-1.62.94s.47.89,2.17,1.36,2.78,1,2.78,2.66c0,1.86-1.82,2.65-3.78,2.65a5.24,5.24,0,0,1-3.52-1.19l1-1.11a4.08,4.08,0,0,0,2.56.93C43.25,95.56,44,95.12,44,94.41Z"/><path class="cls-1" d="M55,94.71l.82,1.17a4.76,4.76,0,0,1-3,1.05c-2.65,0-4.17-1.76-4.17-4.44s1.56-4.55,4.2-4.55a4.49,4.49,0,0,1,3,1L55,90.11a3.7,3.7,0,0,0-2.09-.71c-1.36,0-2.3,1-2.3,3.09s1,3,2.3,3A3.71,3.71,0,0,0,55,94.71Z"/><path class="cls-1" d="M60.26,89.22a3.44,3.44,0,0,1,2.66-1.28c1.6,0,2.38.94,2.38,2.55v6.23H63.49v-6c0-1-.37-1.43-1.23-1.43a2.68,2.68,0,0,0-2,1.27v6.12H58.45v-12l1.81-.2Z"/><path class="cls-1" d="M72.83,95.4h2.34v1.32H68.48V95.4H71V89.5H68.56V88.17h4.27Zm-.06-10.28A1.19,1.19,0,1,1,71.59,84,1.12,1.12,0,0,1,72.77,85.12Z"/><path class="cls-1" d="M81.65,94.39c0,.79.53,1.09,1.29,1.09a3.55,3.55,0,0,0,1.37-.3l.45,1.27a4.69,4.69,0,0,1-2.2.48,2.49,2.49,0,0,1-2.73-2.7V86.06H77.26V84.73h4.39Z"/><path class="cls-1" d="M91.45,95.52a3.86,3.86,0,0,0,2.25-.74l.78,1.1a4.94,4.94,0,0,1-3.11,1.05c-2.68,0-4.13-1.81-4.13-4.48s1.47-4.51,3.9-4.51c2.27,0,3.7,1.62,3.7,4.28a6.27,6.27,0,0,1,0,.81H89.11C89.23,94.78,90.22,95.52,91.45,95.52ZM89.1,91.8h4c0-1.62-.7-2.51-1.91-2.51S89.21,90.08,89.1,91.8Z"/><path class="cls-1" d="M96.6,97.79l6.87-14.22,1.43.66L98,98.44Z"/><path class="cls-1" d="M114,90.86v1.57l-6.22,3.87L106.92,95l5.54-3.36-5.54-3.32.84-1.35Z"/><path class="cls-2" d="M88.69,15.34l1.21-5.05A2.84,2.84,0,0,0,85,8.81s-11.89,9.61-15.3,16.25c-.06.11-.46-.16-.46-.16a37.78,37.78,0,0,0-24.61,0s-.4.27-.46.16c-3.54-6.93-15.3-16.25-15.3-16.25a2.84,2.84,0,0,0-4.86,1.48l.89,4.08c-.77,4.61-1.25,9,1.34,12.84a18.39,18.39,0,0,0,7.8,6.57l7.46,3.32-.4,1.15a11.83,11.83,0,0,0,.13,8.25l-.16,6.06c-.19,6.92,1.45,15.39,7.63,18.33a1.37,1.37,0,0,1,.68.6h.35a9.91,9.91,0,0,0,1.55,2.27,7.78,7.78,0,0,0,11.42,0,10.18,10.18,0,0,0,1.54-2.23h.44a2.19,2.19,0,0,1,.68-.6C72.62,66.35,73.22,59.51,73,52.6l-.16-6.06A11.83,11.83,0,0,0,73,38.29l-.4-1.15V37l7.28-3.24a18.3,18.3,0,0,0,7.79-6.57C90.26,23.33,89.45,20,88.69,15.34Z"/><path class="cls-3" d="M88.75,9.2a1.71,1.71,0,0,0-2.16-.5,40.62,40.62,0,0,0-17.24,17s-.56-.15-1.33-.4a43.65,43.65,0,0,0-9.81-1.83v-.14l-1.2,0-1.21,0v.14A43.46,43.46,0,0,0,46,25.25c-.78.25-1.33.41-1.34.4A40.56,40.56,0,0,0,27.44,8.7a1.71,1.71,0,0,0-2.16.5A1.67,1.67,0,0,0,25,10.3a10.06,10.06,0,0,0,2.35,4.87C32,20,37,24.23,40,30.62a15.07,15.07,0,0,1,1.47,3.54c-.23,2.08-1,8.31-1,8.31l.55-.4a6.55,6.55,0,0,1,7.34-.39,6.35,6.35,0,0,1,3,4.78s0,.61.08,1.47A43.83,43.83,0,0,1,49.7,62.69a37,37,0,0,0-1.61,6.86c0,6.73,17.86,6.73,17.86,0a37.28,37.28,0,0,0-1.62-6.86,43.83,43.83,0,0,1-1.77-14.76c0-.86.08-1.44.08-1.47a6.35,6.35,0,0,1,3-4.78,6.55,6.55,0,0,1,7.34.39l.55.4s-.73-6.23-1-8.31A15.3,15.3,0,0,1,74,30.62C77,24.23,82,20,86.69,15.17A10.12,10.12,0,0,0,89,10.3,1.67,1.67,0,0,0,88.75,9.2Z"/><circle class="cls-4" cx="47.51" cy="46.72" r="2.55"/><circle class="cls-4" cx="66.53" cy="46.72" r="2.55"/><path class="cls-4" d="M91.12,10.84a4,4,0,0,0-6.82-2.2l-2.6,1.8a40.86,40.86,0,0,0-12.5,13.9,36.09,36.09,0,0,0-4.34-1.17,3.13,3.13,0,0,0,.78-2.3V17.15c0-1.76.44-2.52,1.56-2.52h.27V12H67.2c-1.12,0-1.56-.77-1.56-2.52V5.77c0-2.83-2-4.37-4.82-4.37h-1V4h.5c1.63,0,2.3.77,2.3,2.83v3.63c0,2.23,1.28,2.74,2.57,2.85a2.53,2.53,0,0,0-2.57,2.89v3.62c0,1.75-.49,2.56-1.63,2.77a33.21,33.21,0,0,0-4-.19,35.83,35.83,0,0,0-4,.18c-1.13-.21-1.61-1-1.61-2.76V16.19a2.53,2.53,0,0,0-2.57-2.89c1.3-.11,2.57-.62,2.57-2.85V6.82c0-2.06.67-2.83,2.3-2.83h.51V1.4h-1c-2.78,0-4.82,1.54-4.82,4.37V9.49c0,1.75-.43,2.52-1.56,2.52h-.27v2.62h.27c1.13,0,1.56.76,1.56,2.52v3.72a3.1,3.1,0,0,0,.78,2.29,39.81,39.81,0,0,0-4.37,1.19l-.53-.93A40.57,40.57,0,0,0,29.7,8.61a4,4,0,0,0-6.79,2.23,1.19,1.19,0,0,0,.06.62l.1.27A13,13,0,0,1,23.73,18c-.46,3.36-.64,7.24,1.6,10.59a19.46,19.46,0,0,0,8.3,7l6.56,2.93v0a13.06,13.06,0,0,0,0,8.87l-.1,5.69a33.16,33.16,0,0,0,1,9.13c2.22,8.32,7.67,12.11,10.89,13.23a5.6,5.6,0,0,0,3.48,1.22h3A5.58,5.58,0,0,0,62,75.51c3.22-1.12,8.67-4.91,10.89-13.23a33.16,33.16,0,0,0,1-9.13l-.1-5.69a13.12,13.12,0,0,0,.06-8.87l0,0,6.56-2.93a19.55,19.55,0,0,0,8.31-7C90.94,25.28,90.77,21.4,90.3,18A13,13,0,0,1,91,11.73l.1-.27A1.1,1.1,0,0,0,91.12,10.84Zm-3.2,7.52c.43,3.07.57,6.27-1.21,8.93a17.08,17.08,0,0,1-7.29,6.14l-6,2.67-.16-3,3.52-5.27a1.2,1.2,0,0,0-2-1.33l-3.73,5.59a1.13,1.13,0,0,0-.2.73l.26,5.09a1.28,1.28,0,0,0,.07.34l.4,1.14a10.7,10.7,0,0,1-.11,7.42,1,1,0,0,0-.08.46l.1,5.92a30.68,30.68,0,0,1-1,8.47,17.74,17.74,0,0,1-6.45,10,4.89,4.89,0,0,0,0-.54,5.64,5.64,0,0,0-5.63-5.63h-3a5.64,5.64,0,0,0-5.62,5.63c0,.18,0,.36,0,.54a17.79,17.79,0,0,1-6.45-10,31.07,31.07,0,0,1-1-8.47l.11-5.92a1.22,1.22,0,0,0-.09-.46,10.7,10.7,0,0,1-.11-7.42l.4-1.14a1.28,1.28,0,0,0,.07-.34l.27-5.09a1.26,1.26,0,0,0-.2-.73L39.24,26.5a1.2,1.2,0,0,0-2,1.33l3.51,5.27-.16,3-6-2.67a17.14,17.14,0,0,1-7.29-6.14c-1.78-2.66-1.64-5.86-1.21-8.93a15.39,15.39,0,0,0-.76-7.4,1.63,1.63,0,0,1,2.73-.58,1.13,1.13,0,0,0,.27.22,38.19,38.19,0,0,1,13.84,14l1,1.79a1.2,1.2,0,0,0,1.44.54l.46-.16a35.36,35.36,0,0,1,11.71-2h.28a35.74,35.74,0,0,1,11.82,2l.46.16a1.19,1.19,0,0,0,1.46-.57l.25-.48a38.37,38.37,0,0,1,12-13.47l2.7-1.87a1.54,1.54,0,0,0,.19-.17,1.61,1.61,0,0,1,1.67-.44,1.63,1.63,0,0,1,1.07,1A15.4,15.4,0,0,0,87.92,18.36Z"/><path class="cls-1" d="M60.78,1.4c2.78,0,4.82,1.54,4.82,4.37V9.49c0,1.75.43,2.52,1.56,2.52h.27v2.62h-.27c-1.13,0-1.56.76-1.56,2.52v3.72a3.13,3.13,0,0,1-.78,2.3,37.12,37.12,0,0,1,4.34,1.17,40.93,40.93,0,0,1,12.49-13.9l2.61-1.8a4,4,0,0,1,6.82,2.2,1.19,1.19,0,0,1-.06.62l-.1.27A13,13,0,0,0,90.26,18c.46,3.36.64,7.24-1.6,10.59a19.46,19.46,0,0,1-8.3,7L73.8,38.55v0a13.06,13.06,0,0,1,0,8.87l.1,5.69a33.16,33.16,0,0,1-1,9.13C70.6,70.6,65.15,74.39,61.93,75.51a5.6,5.6,0,0,1-3.48,1.22h-3A5.58,5.58,0,0,1,52,75.51c-3.22-1.12-8.67-4.91-10.89-13.23a33.16,33.16,0,0,1-1-9.13l.1-5.69a13.12,13.12,0,0,1-.06-8.87l0,0-6.56-2.93a19.46,19.46,0,0,1-8.3-7c-2.24-3.35-2.07-7.23-1.6-10.59A13,13,0,0,0,23,11.73l-.1-.27a1.1,1.1,0,0,1-.06-.62,4,4,0,0,1,2.8-3.2,4.08,4.08,0,0,1,1.19-.17,4,4,0,0,1,2.8,1.14A40.65,40.65,0,0,1,44.23,23.42l.53.93a39.21,39.21,0,0,1,4.37-1.19,3.1,3.1,0,0,1-.78-2.29V17.15c0-1.76-.44-2.52-1.56-2.52h-.27V12h.27c1.12,0,1.56-.77,1.56-2.52V5.77c0-2.83,2-4.37,4.82-4.37h1V4h-.5c-1.63,0-2.3.77-2.3,2.83v3.63c0,2.23-1.28,2.74-2.57,2.85a2.53,2.53,0,0,1,2.57,2.89v3.62c0,1.74.48,2.55,1.6,2.76,1.21-.12,2.43-.19,3.65-.19h.64a35.71,35.71,0,0,1,3.73.2c1.14-.21,1.63-1,1.63-2.77V16.19a2.53,2.53,0,0,1,2.57-2.89c-1.3-.11-2.57-.62-2.57-2.85V6.82C62.6,4.76,61.93,4,60.3,4h-.51V1.4h1m0-1.4H58.39V5.39H60.3c.67,0,.9,0,.9,1.43v3.63a4.55,4.55,0,0,0,.89,2.86,4.49,4.49,0,0,0-.89,2.88v3.62c0,1-.15,1.27-.33,1.35C59.63,21,58.41,21,57.24,21H56.6c-1.14,0-2.32.06-3.53.18-.17-.09-.32-.35-.32-1.35V16.19a4.49,4.49,0,0,0-.89-2.88,4.55,4.55,0,0,0,.89-2.86V6.82c0-1.43.22-1.43.9-1.43h1.9V0H53.17C49.45,0,47,2.32,47,5.77V9.49a3.29,3.29,0,0,1-.13,1.12h-1.7V16h1.7A3.24,3.24,0,0,1,47,17.15v3.72a5.65,5.65,0,0,0,.14,1.33c-.56.14-1.12.3-1.68.47A42,42,0,0,0,30.5,7.48a5.39,5.39,0,0,0-3.64-1.41,5.71,5.71,0,0,0-1.59.23,5.41,5.41,0,0,0-3.78,4.31A2.55,2.55,0,0,0,21.62,12l.1.27a11.56,11.56,0,0,1,.58,5.62c-.5,3.62-.68,7.83,1.82,11.56A20.87,20.87,0,0,0,33,36.9l5.43,2.42a14.56,14.56,0,0,0,.33,8.37l-.09,5.43a34.83,34.83,0,0,0,1.09,9.52c2.15,8.07,7.34,12.56,11.56,14.11a7,7,0,0,0,4.16,1.38h3a7,7,0,0,0,4.16-1.38c4.22-1.55,9.41-6,11.56-14.11a34.83,34.83,0,0,0,1.09-9.52l-.1-5.43a14.56,14.56,0,0,0,.34-8.37l5.43-2.42a21,21,0,0,0,8.9-7.49c2.49-3.74,2.32-7.94,1.81-11.57a11.67,11.67,0,0,1,.59-5.62l.1-.27a2.55,2.55,0,0,0,.13-1.34A5.41,5.41,0,0,0,88.68,6.3a5.71,5.71,0,0,0-1.59-.23,5.37,5.37,0,0,0-3.72,1.48L80.86,9.29A42.14,42.14,0,0,0,68.5,22.66c-.54-.16-1.09-.32-1.64-.46A6.24,6.24,0,0,0,67,20.87V17.15A3.7,3.7,0,0,1,67.12,16h1.71V10.61H67.12A3.76,3.76,0,0,1,67,9.49V5.77C67,2.32,64.5,0,60.78,0Z"/></g></g></svg>